M48
; DRILL file {KiCad 5.1.12-84ad8e8a86~92~ubuntu20.04.1} date Fri 29 Jul 2022 04:52:15 PM
; FORMAT={-:-/ absolute / metric / decimal}
; #@! TF.CreationDate,2022-07-29T16:52:15-04:00
; #@! TF.GenerationSoftware,Kicad,Pcbnew,5.1.12-84ad8e8a86~92~ubuntu20.04.1
; #@! TF.FileFunction,Plated,1,2,PTH
FMAT,2
METRIC
T1C0.400
T2C0.800
%
G90
G05
T1
X148.59Y-74.93
X149.86Y-72.39
X151.13Y-69.85
X152.654Y-77.47
X153.924Y-80.01
X155.194Y-82.55
X156.464Y-85.09
T2
X145.034Y-54.61
X145.034Y-57.15
X145.034Y-59.69
X145.034Y-62.23
X145.034Y-64.77
X145.034Y-67.31
X145.034Y-69.85
X145.034Y-72.39
X145.034Y-74.93
X145.034Y-77.47
X145.034Y-80.01
X145.034Y-82.55
X145.034Y-85.09
X145.034Y-87.63
X160.274Y-54.61
X160.274Y-57.15
X160.274Y-59.69
X160.274Y-62.23
X160.274Y-64.77
X160.274Y-67.31
X160.274Y-69.85
X160.274Y-72.39
X160.274Y-74.93
X160.274Y-77.47
X160.274Y-80.01
X160.274Y-82.55
X160.274Y-85.09
X160.274Y-87.63
T0
M30
