G04 #@! TF.GenerationSoftware,KiCad,Pcbnew,5.1.12-84ad8e8a86~92~ubuntu20.04.1*
G04 #@! TF.CreationDate,2022-07-29T16:52:11-04:00*
G04 #@! TF.ProjectId,arkanoid-mpu-bypass,61726b61-6e6f-4696-942d-6d70752d6279,1.2*
G04 #@! TF.SameCoordinates,Original*
G04 #@! TF.FileFunction,Legend,Top*
G04 #@! TF.FilePolarity,Positive*
%FSLAX46Y46*%
G04 Gerber Fmt 4.6, Leading zero omitted, Abs format (unit mm)*
G04 Created by KiCad (PCBNEW 5.1.12-84ad8e8a86~92~ubuntu20.04.1) date 2022-07-29 16:52:11*
%MOMM*%
%LPD*%
G01*
G04 APERTURE LIST*
%ADD10C,0.150000*%
%ADD11C,0.120000*%
%ADD12O,2.400000X1.600000*%
%ADD13R,2.400000X1.600000*%
G04 APERTURE END LIST*
D10*
X150122285Y-88082380D02*
X150122285Y-87082380D01*
X150455619Y-87796666D01*
X150788952Y-87082380D01*
X150788952Y-88082380D01*
X151265142Y-88082380D02*
X151265142Y-87082380D01*
X151503238Y-87082380D01*
X151646095Y-87130000D01*
X151741333Y-87225238D01*
X151788952Y-87320476D01*
X151836571Y-87510952D01*
X151836571Y-87653809D01*
X151788952Y-87844285D01*
X151741333Y-87939523D01*
X151646095Y-88034761D01*
X151503238Y-88082380D01*
X151265142Y-88082380D01*
X152931809Y-87415714D02*
X153169904Y-88082380D01*
X153408000Y-87415714D01*
X154312761Y-88082380D02*
X153741333Y-88082380D01*
X154027047Y-88082380D02*
X154027047Y-87082380D01*
X153931809Y-87225238D01*
X153836571Y-87320476D01*
X153741333Y-87368095D01*
X154741333Y-87987142D02*
X154788952Y-88034761D01*
X154741333Y-88082380D01*
X154693714Y-88034761D01*
X154741333Y-87987142D01*
X154741333Y-88082380D01*
X155169904Y-87177619D02*
X155217523Y-87130000D01*
X155312761Y-87082380D01*
X155550857Y-87082380D01*
X155646095Y-87130000D01*
X155693714Y-87177619D01*
X155741333Y-87272857D01*
X155741333Y-87368095D01*
X155693714Y-87510952D01*
X155122285Y-88082380D01*
X155741333Y-88082380D01*
X151078000Y-57150000D02*
X151078000Y-57875714D01*
X150642571Y-57004857D02*
X152166571Y-57512857D01*
X150642571Y-58020857D01*
X150642571Y-58528857D02*
X151658571Y-58528857D01*
X151368285Y-58528857D02*
X151513428Y-58601428D01*
X151586000Y-58674000D01*
X151658571Y-58819142D01*
X151658571Y-58964285D01*
X150642571Y-59472285D02*
X152166571Y-59472285D01*
X151223142Y-59617428D02*
X150642571Y-60052857D01*
X151658571Y-60052857D02*
X151078000Y-59472285D01*
X150642571Y-61359142D02*
X151440857Y-61359142D01*
X151586000Y-61286571D01*
X151658571Y-61141428D01*
X151658571Y-60851142D01*
X151586000Y-60706000D01*
X150715142Y-61359142D02*
X150642571Y-61214000D01*
X150642571Y-60851142D01*
X150715142Y-60706000D01*
X150860285Y-60633428D01*
X151005428Y-60633428D01*
X151150571Y-60706000D01*
X151223142Y-60851142D01*
X151223142Y-61214000D01*
X151295714Y-61359142D01*
X151658571Y-62084857D02*
X150642571Y-62084857D01*
X151513428Y-62084857D02*
X151586000Y-62157428D01*
X151658571Y-62302571D01*
X151658571Y-62520285D01*
X151586000Y-62665428D01*
X151440857Y-62738000D01*
X150642571Y-62738000D01*
X150642571Y-63681428D02*
X150715142Y-63536285D01*
X150787714Y-63463714D01*
X150932857Y-63391142D01*
X151368285Y-63391142D01*
X151513428Y-63463714D01*
X151586000Y-63536285D01*
X151658571Y-63681428D01*
X151658571Y-63899142D01*
X151586000Y-64044285D01*
X151513428Y-64116857D01*
X151368285Y-64189428D01*
X150932857Y-64189428D01*
X150787714Y-64116857D01*
X150715142Y-64044285D01*
X150642571Y-63899142D01*
X150642571Y-63681428D01*
X150642571Y-64842571D02*
X151658571Y-64842571D01*
X152166571Y-64842571D02*
X152094000Y-64770000D01*
X152021428Y-64842571D01*
X152094000Y-64915142D01*
X152166571Y-64842571D01*
X152021428Y-64842571D01*
X150642571Y-66221428D02*
X152166571Y-66221428D01*
X150715142Y-66221428D02*
X150642571Y-66076285D01*
X150642571Y-65786000D01*
X150715142Y-65640857D01*
X150787714Y-65568285D01*
X150932857Y-65495714D01*
X151368285Y-65495714D01*
X151513428Y-65568285D01*
X151586000Y-65640857D01*
X151658571Y-65786000D01*
X151658571Y-66076285D01*
X151586000Y-66221428D01*
X148206571Y-55118000D02*
X149730571Y-55118000D01*
X148642000Y-55626000D01*
X149730571Y-56134000D01*
X148206571Y-56134000D01*
X148351714Y-57730571D02*
X148279142Y-57658000D01*
X148206571Y-57440285D01*
X148206571Y-57295142D01*
X148279142Y-57077428D01*
X148424285Y-56932285D01*
X148569428Y-56859714D01*
X148859714Y-56787142D01*
X149077428Y-56787142D01*
X149367714Y-56859714D01*
X149512857Y-56932285D01*
X149658000Y-57077428D01*
X149730571Y-57295142D01*
X149730571Y-57440285D01*
X149658000Y-57658000D01*
X149585428Y-57730571D01*
X149730571Y-58383714D02*
X148496857Y-58383714D01*
X148351714Y-58456285D01*
X148279142Y-58528857D01*
X148206571Y-58674000D01*
X148206571Y-58964285D01*
X148279142Y-59109428D01*
X148351714Y-59182000D01*
X148496857Y-59254571D01*
X149730571Y-59254571D01*
X149004857Y-61649428D02*
X148932285Y-61867142D01*
X148859714Y-61939714D01*
X148714571Y-62012285D01*
X148496857Y-62012285D01*
X148351714Y-61939714D01*
X148279142Y-61867142D01*
X148206571Y-61722000D01*
X148206571Y-61141428D01*
X149730571Y-61141428D01*
X149730571Y-61649428D01*
X149658000Y-61794571D01*
X149585428Y-61867142D01*
X149440285Y-61939714D01*
X149295142Y-61939714D01*
X149150000Y-61867142D01*
X149077428Y-61794571D01*
X149004857Y-61649428D01*
X149004857Y-61141428D01*
X149222571Y-62520285D02*
X148206571Y-62883142D01*
X149222571Y-63246000D02*
X148206571Y-62883142D01*
X147843714Y-62738000D01*
X147771142Y-62665428D01*
X147698571Y-62520285D01*
X149222571Y-63826571D02*
X147698571Y-63826571D01*
X149150000Y-63826571D02*
X149222571Y-63971714D01*
X149222571Y-64262000D01*
X149150000Y-64407142D01*
X149077428Y-64479714D01*
X148932285Y-64552285D01*
X148496857Y-64552285D01*
X148351714Y-64479714D01*
X148279142Y-64407142D01*
X148206571Y-64262000D01*
X148206571Y-63971714D01*
X148279142Y-63826571D01*
X148206571Y-65858571D02*
X149004857Y-65858571D01*
X149150000Y-65786000D01*
X149222571Y-65640857D01*
X149222571Y-65350571D01*
X149150000Y-65205428D01*
X148279142Y-65858571D02*
X148206571Y-65713428D01*
X148206571Y-65350571D01*
X148279142Y-65205428D01*
X148424285Y-65132857D01*
X148569428Y-65132857D01*
X148714571Y-65205428D01*
X148787142Y-65350571D01*
X148787142Y-65713428D01*
X148859714Y-65858571D01*
X148279142Y-66511714D02*
X148206571Y-66656857D01*
X148206571Y-66947142D01*
X148279142Y-67092285D01*
X148424285Y-67164857D01*
X148496857Y-67164857D01*
X148642000Y-67092285D01*
X148714571Y-66947142D01*
X148714571Y-66729428D01*
X148787142Y-66584285D01*
X148932285Y-66511714D01*
X149004857Y-66511714D01*
X149150000Y-66584285D01*
X149222571Y-66729428D01*
X149222571Y-66947142D01*
X149150000Y-67092285D01*
X148279142Y-67745428D02*
X148206571Y-67890571D01*
X148206571Y-68180857D01*
X148279142Y-68326000D01*
X148424285Y-68398571D01*
X148496857Y-68398571D01*
X148642000Y-68326000D01*
X148714571Y-68180857D01*
X148714571Y-67963142D01*
X148787142Y-67818000D01*
X148932285Y-67745428D01*
X149004857Y-67745428D01*
X149150000Y-67818000D01*
X149222571Y-67963142D01*
X149222571Y-68180857D01*
X149150000Y-68326000D01*
D11*
X158714000Y-53280000D02*
X153654000Y-53280000D01*
X158714000Y-88960000D02*
X158714000Y-53280000D01*
X146594000Y-88960000D02*
X158714000Y-88960000D01*
X146594000Y-53280000D02*
X146594000Y-88960000D01*
X151654000Y-53280000D02*
X146594000Y-53280000D01*
X153654000Y-53280000D02*
G75*
G02*
X151654000Y-53280000I-1000000J0D01*
G01*
%LPC*%
D12*
X160274000Y-54610000D03*
X145034000Y-87630000D03*
X160274000Y-57150000D03*
X145034000Y-85090000D03*
X160274000Y-59690000D03*
X145034000Y-82550000D03*
X160274000Y-62230000D03*
X145034000Y-80010000D03*
X160274000Y-64770000D03*
X145034000Y-77470000D03*
X160274000Y-67310000D03*
X145034000Y-74930000D03*
X160274000Y-69850000D03*
X145034000Y-72390000D03*
X160274000Y-72390000D03*
X145034000Y-69850000D03*
X160274000Y-74930000D03*
X145034000Y-67310000D03*
X160274000Y-77470000D03*
X145034000Y-64770000D03*
X160274000Y-80010000D03*
X145034000Y-62230000D03*
X160274000Y-82550000D03*
X145034000Y-59690000D03*
X160274000Y-85090000D03*
X145034000Y-57150000D03*
X160274000Y-87630000D03*
D13*
X145034000Y-54610000D03*
M02*
