G04 #@! TF.GenerationSoftware,KiCad,Pcbnew,5.1.12-84ad8e8a86~92~ubuntu20.04.1*
G04 #@! TF.CreationDate,2022-07-13T08:14:16-04:00*
G04 #@! TF.ProjectId,arkanoid-mpu-bypass,61726b61-6e6f-4696-942d-6d70752d6279,1.1*
G04 #@! TF.SameCoordinates,Original*
G04 #@! TF.FileFunction,Legend,Top*
G04 #@! TF.FilePolarity,Positive*
%FSLAX46Y46*%
G04 Gerber Fmt 4.6, Leading zero omitted, Abs format (unit mm)*
G04 Created by KiCad (PCBNEW 5.1.12-84ad8e8a86~92~ubuntu20.04.1) date 2022-07-13 08:14:16*
%MOMM*%
%LPD*%
G01*
G04 APERTURE LIST*
%ADD10C,0.150000*%
%ADD11C,0.120000*%
%ADD12O,2.400000X1.600000*%
%ADD13R,2.400000X1.600000*%
G04 APERTURE END LIST*
D10*
X150122285Y-88082380D02*
X150122285Y-87082380D01*
X150455619Y-87796666D01*
X150788952Y-87082380D01*
X150788952Y-88082380D01*
X151265142Y-88082380D02*
X151265142Y-87082380D01*
X151503238Y-87082380D01*
X151646095Y-87130000D01*
X151741333Y-87225238D01*
X151788952Y-87320476D01*
X151836571Y-87510952D01*
X151836571Y-87653809D01*
X151788952Y-87844285D01*
X151741333Y-87939523D01*
X151646095Y-88034761D01*
X151503238Y-88082380D01*
X151265142Y-88082380D01*
X152931809Y-87415714D02*
X153169904Y-88082380D01*
X153408000Y-87415714D01*
X154312761Y-88082380D02*
X153741333Y-88082380D01*
X154027047Y-88082380D02*
X154027047Y-87082380D01*
X153931809Y-87225238D01*
X153836571Y-87320476D01*
X153741333Y-87368095D01*
X154741333Y-87987142D02*
X154788952Y-88034761D01*
X154741333Y-88082380D01*
X154693714Y-88034761D01*
X154741333Y-87987142D01*
X154741333Y-88082380D01*
X155741333Y-88082380D02*
X155169904Y-88082380D01*
X155455619Y-88082380D02*
X155455619Y-87082380D01*
X155360380Y-87225238D01*
X155265142Y-87320476D01*
X155169904Y-87368095D01*
X149150000Y-66294000D02*
X149150000Y-65568285D01*
X149585428Y-66439142D02*
X148061428Y-65931142D01*
X149585428Y-65423142D01*
X149585428Y-64915142D02*
X148569428Y-64915142D01*
X148859714Y-64915142D02*
X148714571Y-64842571D01*
X148642000Y-64770000D01*
X148569428Y-64624857D01*
X148569428Y-64479714D01*
X149585428Y-63971714D02*
X148061428Y-63971714D01*
X149004857Y-63826571D02*
X149585428Y-63391142D01*
X148569428Y-63391142D02*
X149150000Y-63971714D01*
X149585428Y-62084857D02*
X148787142Y-62084857D01*
X148642000Y-62157428D01*
X148569428Y-62302571D01*
X148569428Y-62592857D01*
X148642000Y-62738000D01*
X149512857Y-62084857D02*
X149585428Y-62230000D01*
X149585428Y-62592857D01*
X149512857Y-62738000D01*
X149367714Y-62810571D01*
X149222571Y-62810571D01*
X149077428Y-62738000D01*
X149004857Y-62592857D01*
X149004857Y-62230000D01*
X148932285Y-62084857D01*
X148569428Y-61359142D02*
X149585428Y-61359142D01*
X148714571Y-61359142D02*
X148642000Y-61286571D01*
X148569428Y-61141428D01*
X148569428Y-60923714D01*
X148642000Y-60778571D01*
X148787142Y-60706000D01*
X149585428Y-60706000D01*
X149585428Y-59762571D02*
X149512857Y-59907714D01*
X149440285Y-59980285D01*
X149295142Y-60052857D01*
X148859714Y-60052857D01*
X148714571Y-59980285D01*
X148642000Y-59907714D01*
X148569428Y-59762571D01*
X148569428Y-59544857D01*
X148642000Y-59399714D01*
X148714571Y-59327142D01*
X148859714Y-59254571D01*
X149295142Y-59254571D01*
X149440285Y-59327142D01*
X149512857Y-59399714D01*
X149585428Y-59544857D01*
X149585428Y-59762571D01*
X149585428Y-58601428D02*
X148569428Y-58601428D01*
X148061428Y-58601428D02*
X148134000Y-58674000D01*
X148206571Y-58601428D01*
X148134000Y-58528857D01*
X148061428Y-58601428D01*
X148206571Y-58601428D01*
X149585428Y-57222571D02*
X148061428Y-57222571D01*
X149512857Y-57222571D02*
X149585428Y-57367714D01*
X149585428Y-57658000D01*
X149512857Y-57803142D01*
X149440285Y-57875714D01*
X149295142Y-57948285D01*
X148859714Y-57948285D01*
X148714571Y-57875714D01*
X148642000Y-57803142D01*
X148569428Y-57658000D01*
X148569428Y-57367714D01*
X148642000Y-57222571D01*
X152021428Y-68326000D02*
X150497428Y-68326000D01*
X151586000Y-67818000D01*
X150497428Y-67310000D01*
X152021428Y-67310000D01*
X151876285Y-65713428D02*
X151948857Y-65786000D01*
X152021428Y-66003714D01*
X152021428Y-66148857D01*
X151948857Y-66366571D01*
X151803714Y-66511714D01*
X151658571Y-66584285D01*
X151368285Y-66656857D01*
X151150571Y-66656857D01*
X150860285Y-66584285D01*
X150715142Y-66511714D01*
X150570000Y-66366571D01*
X150497428Y-66148857D01*
X150497428Y-66003714D01*
X150570000Y-65786000D01*
X150642571Y-65713428D01*
X150497428Y-65060285D02*
X151731142Y-65060285D01*
X151876285Y-64987714D01*
X151948857Y-64915142D01*
X152021428Y-64770000D01*
X152021428Y-64479714D01*
X151948857Y-64334571D01*
X151876285Y-64262000D01*
X151731142Y-64189428D01*
X150497428Y-64189428D01*
X151223142Y-61794571D02*
X151295714Y-61576857D01*
X151368285Y-61504285D01*
X151513428Y-61431714D01*
X151731142Y-61431714D01*
X151876285Y-61504285D01*
X151948857Y-61576857D01*
X152021428Y-61722000D01*
X152021428Y-62302571D01*
X150497428Y-62302571D01*
X150497428Y-61794571D01*
X150570000Y-61649428D01*
X150642571Y-61576857D01*
X150787714Y-61504285D01*
X150932857Y-61504285D01*
X151078000Y-61576857D01*
X151150571Y-61649428D01*
X151223142Y-61794571D01*
X151223142Y-62302571D01*
X151005428Y-60923714D02*
X152021428Y-60560857D01*
X151005428Y-60198000D02*
X152021428Y-60560857D01*
X152384285Y-60706000D01*
X152456857Y-60778571D01*
X152529428Y-60923714D01*
X151005428Y-59617428D02*
X152529428Y-59617428D01*
X151078000Y-59617428D02*
X151005428Y-59472285D01*
X151005428Y-59182000D01*
X151078000Y-59036857D01*
X151150571Y-58964285D01*
X151295714Y-58891714D01*
X151731142Y-58891714D01*
X151876285Y-58964285D01*
X151948857Y-59036857D01*
X152021428Y-59182000D01*
X152021428Y-59472285D01*
X151948857Y-59617428D01*
X152021428Y-57585428D02*
X151223142Y-57585428D01*
X151078000Y-57658000D01*
X151005428Y-57803142D01*
X151005428Y-58093428D01*
X151078000Y-58238571D01*
X151948857Y-57585428D02*
X152021428Y-57730571D01*
X152021428Y-58093428D01*
X151948857Y-58238571D01*
X151803714Y-58311142D01*
X151658571Y-58311142D01*
X151513428Y-58238571D01*
X151440857Y-58093428D01*
X151440857Y-57730571D01*
X151368285Y-57585428D01*
X151948857Y-56932285D02*
X152021428Y-56787142D01*
X152021428Y-56496857D01*
X151948857Y-56351714D01*
X151803714Y-56279142D01*
X151731142Y-56279142D01*
X151586000Y-56351714D01*
X151513428Y-56496857D01*
X151513428Y-56714571D01*
X151440857Y-56859714D01*
X151295714Y-56932285D01*
X151223142Y-56932285D01*
X151078000Y-56859714D01*
X151005428Y-56714571D01*
X151005428Y-56496857D01*
X151078000Y-56351714D01*
X151948857Y-55698571D02*
X152021428Y-55553428D01*
X152021428Y-55263142D01*
X151948857Y-55118000D01*
X151803714Y-55045428D01*
X151731142Y-55045428D01*
X151586000Y-55118000D01*
X151513428Y-55263142D01*
X151513428Y-55480857D01*
X151440857Y-55626000D01*
X151295714Y-55698571D01*
X151223142Y-55698571D01*
X151078000Y-55626000D01*
X151005428Y-55480857D01*
X151005428Y-55263142D01*
X151078000Y-55118000D01*
D11*
X158714000Y-53280000D02*
X153654000Y-53280000D01*
X158714000Y-88960000D02*
X158714000Y-53280000D01*
X146594000Y-88960000D02*
X158714000Y-88960000D01*
X146594000Y-53280000D02*
X146594000Y-88960000D01*
X151654000Y-53280000D02*
X146594000Y-53280000D01*
X153654000Y-53280000D02*
G75*
G02*
X151654000Y-53280000I-1000000J0D01*
G01*
%LPC*%
D12*
X160274000Y-54610000D03*
X145034000Y-87630000D03*
X160274000Y-57150000D03*
X145034000Y-85090000D03*
X160274000Y-59690000D03*
X145034000Y-82550000D03*
X160274000Y-62230000D03*
X145034000Y-80010000D03*
X160274000Y-64770000D03*
X145034000Y-77470000D03*
X160274000Y-67310000D03*
X145034000Y-74930000D03*
X160274000Y-69850000D03*
X145034000Y-72390000D03*
X160274000Y-72390000D03*
X145034000Y-69850000D03*
X160274000Y-74930000D03*
X145034000Y-67310000D03*
X160274000Y-77470000D03*
X145034000Y-64770000D03*
X160274000Y-80010000D03*
X145034000Y-62230000D03*
X160274000Y-82550000D03*
X145034000Y-59690000D03*
X160274000Y-85090000D03*
X145034000Y-57150000D03*
X160274000Y-87630000D03*
D13*
X145034000Y-54610000D03*
M02*
